Genre:Adventure | Comedy | Drama
Language:English 
http://www.imdb.com/title/tt1667353/
Source:Russian/ADTRG Thanks!
Encoder:Tony

Format : AVI
Format/Info : Audio Video Interleave
File size : 815 MiB
Duration : 1h 38mn
Overall bit rate : 1 160 Kbps

Video
ID : 0
Format : MPEG-4 Visual
Format profile : Advanced Simple@L5
Format settings, BVOP : 1
Format settings, QPel : No
Format settings, GMC : No warppoints
Format settings, Matrix : Default (H.263)
Codec ID : XVID
Codec ID/Hint : XviD
Duration : 1h 38mn
Bit rate : 963 Kbps
Width : 640 pixels
Height : 248 pixels
Display aspect ratio : 2.581
Frame rate : 25.000 fps
Color space : YUV
Chroma subsampling : 4:2:0
Bit depth : 8 bits
Scan type : Progressive
Compression mode : Lossy
Bits/(Pixel*Frame) : 0.243
Stream size : 676 MiB (83%)
Writing library : XviD 1.2.1 (UTC 2008-12-04)

Audio
ID : 1
Format : AC-3
Format/Info : Audio Coding 3
Mode extension : CM (complete main)
Codec ID : 2000
Duration : 1h 35mn
Bit rate mode : Constant
Bit rate : 192 Kbps
Channel(s) : 2 channels
Channel positions : Front: L R
Sampling rate : 48.0 KHz
Bit depth : 16 bits
Compression mode : Lossy
Stream size : 131 MiB (16%)
Alignment : Aligned on interleaves
Interleave, duration : 41 ms (1.03 video frame)
Interleave, preload duration : 512 ms


Plot:
An evil queen steals control of a kingdom and an exiled princess enlists the help of seven resourceful rebels to win back her birthright.
 
http://img594.imageshack.us/img594/3009/vlcsnap2012040420h01m13.png 
http://img808.imageshack.us/img808/7289/vlcsnap2012040420h01m39.png 
http://img339.imageshack.us/img339/395/vlcsnap2012040420h02m18.png 
http://img829.imageshack.us/img829/6301/vlcsnap2012040420h02m53.png 
http://img829.imageshack.us/img829/6301/vlcsnap2012040420h02m53.png